<svg width="95" height="95" viewBox="0 0 95 95" fill="none" xmlns="http://www.w3.org/2000/svg">
<path fill-rule="evenodd" clip-rule="evenodd" d="M44.1165 10.0345C43.3432 10.0345 42.7163 10.6614 42.7163 11.4347V35.9224L25.4785 18.5298C24.9341 17.9805 24.0476 17.9766 23.4983 18.5209L18.7468 23.2302C18.1975 23.7745 18.1936 24.6611 18.7379 25.2103L30.681 37.2607L31.1855 37.7697C32.1838 38.6531 34.1034 39.8013 36.571 39.7499C38.1057 39.7179 40.4453 39.712 42.7163 39.7172C44.0603 39.7204 45.3804 39.7274 46.4953 39.7354C47.1632 39.7401 47.7575 39.7452 48.2393 39.7499C48.3099 39.7506 48.3825 39.7533 48.4569 39.7579C49.5125 39.8236 50.9323 40.2854 52.2065 41.1347C52.853 41.5655 53.462 42.0961 53.9669 42.7252C54.743 43.6922 55.2732 44.892 55.3159 46.3205C55.3186 46.4112 55.3194 46.5028 55.3181 46.5953C55.3091 47.2459 55.3022 47.9244 55.2969 48.616C55.288 49.8026 55.2842 51.0282 55.2838 52.2195C55.2828 55.1359 55.3023 57.8466 55.3181 59.2749C55.3181 60.2229 55.5359 62.3388 56.4071 63.2178L69.4444 76.3722C69.9888 76.9214 70.8753 76.9254 71.4246 76.381L76.1761 71.6718C76.7254 71.1274 76.7293 70.2409 76.185 69.6916L58.8789 52.2302L83.4634 52.3034C84.2367 52.3057 84.8654 51.6807 84.8677 50.9074L84.8877 44.2176C84.89 43.4443 84.265 42.8155 83.4917 42.8132L58.9072 42.74L76.317 25.3819C76.8646 24.8359 76.8659 23.9494 76.3199 23.4018L71.5966 18.6643C71.0506 18.1166 70.164 18.1153 69.6164 18.6613L52.2065 36.0194V11.4347C52.2065 10.6614 51.5797 10.0345 50.8063 10.0345H44.1165ZM52.2065 58.9795V52.2103V49.4206V46.9843C52.2065 46.2833 52.0677 45.6565 51.8251 45.113C51.4064 44.1752 50.6784 43.4855 49.8209 43.0908C49.2785 42.8411 48.6843 42.7095 48.0837 42.7077L45.5059 42.7L42.7163 42.6917L36.044 42.6718L11.4595 42.5986C10.6862 42.5963 10.0574 43.2213 10.0551 43.9946L10.0352 50.6844C10.0329 51.4577 10.6579 52.0865 11.4312 52.0888L36.0157 52.162L18.6059 69.5201C18.0582 70.0661 18.0569 70.9526 18.6029 71.5002L23.3263 76.2377C23.8723 76.7853 24.7588 76.7867 25.3065 76.2407L42.7163 58.8826V83.4673C42.7163 84.2406 43.3432 84.8675 44.1165 84.8675H50.8063C51.5797 84.8675 52.2065 84.2406 52.2065 83.4673V58.9795Z" fill="white"/>
</svg>
